<?xml version="1.0" encoding="iso-8859-1"?>
<!-- Generator: Adobe Illustrator 19.0.0, SVG Export Plug-In . SVG Version: 6.00 Build 0)  -->
<svg version="1.1" id="Layer_1" xmlns="http://www.w3.org/2000/svg" xmlns:xlink="http://www.w3.org/1999/xlink" x="0px" y="0px"
	 viewBox="0 0 512 512" style="enable-background:new 0 0 512 512;" xml:space="preserve">
<circle style="fill:#4AB8A1;" cx="256" cy="256" r="256"/>
<path style="fill:#43A691;" d="M499.772,334.248L416,132c-56,0-116-56-160-56s-104.188,56-160.188,56c0,0.656,0,1.36,0,2.048
	c0,0.668,0,1.348,0,2.048c0,35.992,0,111.836,0,143.908c0,0.688,0,1.396,0,2.048c0,0.688,0,1.396,0,2.048
	c0,13.92,3.608,28.532,9.872,42.984c2.208,6.476,5.012,12.96,8.312,19.384c1.084,3.1,2.344,6.204,3.688,9.296
	c1.168,3.42,2.52,6.836,4,10.252c2.208,6.476,5.012,12.96,8.312,19.384c1.084,3.1,2.344,6.204,3.688,9.304
	c1.168,3.416,2.52,6.836,4,10.252c1.164,3.416,2.52,6.832,4,10.244c2.208,6.476,5.016,12.96,8.312,19.384
	c1.084,3.1,2.344,6.208,3.688,9.308c1.168,3.416,2.52,6.832,4,10.24c2.208,6.48,5.016,12.96,8.312,19.384
	c1.084,3.104,2.344,6.212,3.688,9.312c1.164,3.416,2.52,6.828,3.996,10.24c0.7,2.052,1.56,4.096,2.372,6.152
	c25.164,8.248,52.016,12.78,79.944,12.78C370.084,512,466.704,437.344,499.772,334.248z"/>
<path style="fill:#F5F5F5;" d="M255.812,76c-44,0-104,56-160,56c0,34,0,114.668,0,148c0,69.5,88.668,156,160,156s160-86.5,160-156
	c0-33.332,0-114,0-148C359.812,132,299.812,76,255.812,76z"/>
<path style="fill:#263740;" d="M255.812,420c-61.908,0-144-79.812-144-140V146.768c28.124-4.18,55.824-18.332,80.728-31.052
	C216.424,103.52,238.984,92,255.812,92s39.392,11.524,63.272,23.724c24.904,12.72,52.6,26.868,80.728,31.052V280
	C399.812,340.188,317.72,420,255.812,420z"/>
<g>
	<path style="fill:#F5F5F5;" d="M255.812,256V108.004c-12,0.1-34.844,11.208-55.9,21.96c-21.904,11.192-48.1,23.652-72.1,29.936V256
		H255.812z"/>
	<path style="fill:#F5F5F5;" d="M255.812,256v147.996c0,0,0.032,0.008,0.092,0.008c52.636,0,127.908-73.008,127.908-124v-24h-128
		V256z"/>
</g>
<g>
</g>
<g>
</g>
<g>
</g>
<g>
</g>
<g>
</g>
<g>
</g>
<g>
</g>
<g>
</g>
<g>
</g>
<g>
</g>
<g>
</g>
<g>
</g>
<g>
</g>
<g>
</g>
<g>
</g>
</svg>
